<svg xmlns="http://www.w3.org/2000/svg" id="Group_191" width="99.615" height="99.615" viewBox="0 0 99.615 99.615">
    <defs>
        <style>
            .cls-2{fill:#8ea47e}
        </style>
    </defs>
    <g id="Group_122">
        <g id="Ellipse_4" fill="none" stroke="#f5f5f5" stroke-width="5px">
            <circle cx="49.807" cy="49.807" r="49.807" stroke="none"/>
            <circle cx="49.807" cy="49.807" r="47.307"/>
        </g>
    </g>
    <g id="running-run-svgrepo-com" transform="translate(20.697 21.709)">
        <g id="Group_137">
            <g id="Group_136">
                <path id="Path_165" d="M58.23 90.978l-.142-.143a3.445 3.445 0 0 0-4.867 0l-5.239 5.295a.724.724 0 0 1-1.006.023l-7.346-6.777a3.84 3.84 0 0 0-2.614-1.022H26.088a1 1 0 0 0-.691.275l-9.262 8.794a3.547 3.547 0 0 0-.207 4.879 3.422 3.422 0 0 0 2.526 1.1h.017a3.442 3.442 0 0 0 2.511-1.106l6.541-6.922h2.341L14.6 112.439H5.185a4.1 4.1 0 0 0-4.179 3.8 3.978 3.978 0 0 0 1.1 2.977 4.029 4.029 0 0 0 2.912 1.251h14.046a1 1 0 0 0 .733-.318l7.2-7.684 6.053 6.33-1.83 11.679a4.006 4.006 0 0 0 3.878 5.045 4.006 4.006 0 0 0 3.908-3.14l3.122-16.746a1 1 0 0 0-.278-.894l-8.332-8.321 6.619-6.609 4.614 4.613a3.491 3.491 0 0 0 4.822 0l8.657-8.656a3.384 3.384 0 0 0 0-4.787z" class="cls-2" transform="translate(-1 -79.322)"/>
                <path id="Path_166" d="M360.12 20.947a6.021 6.021 0 1 0-6.021-6.021 6.027 6.027 0 0 0 6.021 6.021z" class="cls-2" transform="translate(-313.958 -8.905)"/>
            </g>
        </g>
    </g>
</svg>
